Coordinates
version=1
nRows=24
nColumns=24
inDegrees=yes

Units are S.I. units (second, meters, Newtons, ...)
Angles are in degrees.

endheader
time	pelvis_tilt	pelvis_list	pelvis_rotation	pelvis_tx	pelvis_ty	pelvis_tz	hip_flexion_r	hip_adduction_r	hip_rotation_r	knee_angle_r	ankle_angle_r	subtalar_angle_r	mtp_angle_r	hip_flexion_l	hip_adduction_l	hip_rotation_l	knee_angle_l	ankle_angle_l	subtalar_angle_l	mtp_angle_l	lumbar_extension	lumbar_bending	lumbar_rotation
      1.17583333	      0.50212731	      0.35355309	     -3.31207800	      0.09907510	      1.01506352	      0.30420129	     16.12821214	     -4.46503015	     -7.27502374	    -63.94361116	      3.25079401	     -9.33786723	      0.44935882	     12.86057761	      0.81836192	     -7.18426967	    -16.72007857	      1.90886916	    -15.14691355	     -8.61542896	    -12.50094516	     -1.86721907	      2.02467292
      1.18000000	      0.53168084	      0.24396295	     -3.24534949	      0.10408113	      1.01601297	      0.30382047	     16.60060080	     -4.30930376	     -7.47905668	    -63.46560352	      3.47900557	     -9.44459290	      0.37204888	     12.40301521	      0.77396156	     -7.07356783	    -16.51082478	      2.05832449	    -15.13413919	     -8.65975278	    -12.57992465	     -1.69129474	      1.92412375
      1.18416667	      0.62526099	      0.08897617	     -3.10136491	      0.10913672	      1.01712331	      0.30326868	     16.93488049	     -4.14058985	     -7.79015548	    -62.83791192	      3.58961234	     -9.55006121	      0.20726971	     11.87107682	      0.70500697	     -6.87088125	    -16.29063990	      2.23592472	    -15.09188420	     -8.75642302	    -12.72800692	     -1.46416814	      1.72287776
      1.18833333	      0.67753141	     -0.03523594	     -3.01461305	      0.11414529	      1.01811388	      0.30284896	     17.32475511	     -3.98171779	     -8.04446045	    -62.17952238	      3.75743191	     -9.67646249	      0.04611110	     11.37623653	      0.65053664	     -6.72694183	    -16.05142816	      2.36721170	    -15.10650362	     -8.85520283	    -12.83234494	     -1.26817661	      1.58882305
      1.19250000	      0.70341832	     -0.15551574	     -2.93578982	      0.11916037	      1.01903538	      0.30245285	     17.72612319	     -3.82474512	     -8.30268030	    -61.45500461	      3.89486190	     -9.82024555	     -0.08691317	     10.90616997	      0.59424847	     -6.59440905	    -15.80677506	      2.50807693	    -15.10180450	     -8.93706605	    -12.90437627	     -1.08055766	      1.47952596
      1.19666667	      0.65667082	     -0.16900482	     -2.94700607	      0.12416084	      1.01972960	      0.30223357	     18.24176313	     -3.75580825	     -8.45558569	    -60.74696222	      4.09278356	     -9.91205452	     -0.10368289	     10.49828725	      0.63045138	     -6.55664178	    -15.53043149	      2.64425494	    -15.10009417	     -8.94597396	    -12.87390479	     -1.03518838	      1.45564554
      1.20083333	      0.77496502	     -0.40489842	     -2.76286806	      0.12920821	      1.02085686	      0.30163717	     18.42857921	     -3.51464344	     -8.87797076	    -59.77806313	      4.09789669	    -10.18881208	     -0.24990156	      9.93240623	      0.47070923	     -6.32708500	    -15.29151361	      2.79250556	    -15.07496439	     -9.03156077	    -13.06877748	     -0.66809742	      1.25280535
      1.20500000	      0.91982593	     -0.54245263	     -2.62417831	      0.13424976	      1.02194360	      0.30110921	     18.59674349	     -3.37831535	     -9.24219980	    -58.80493809	      4.25213189	    -10.32519278	     -0.46427959	      9.31221359	      0.41390036	     -6.12542988	    -14.98997112	      2.89992947	    -15.07311682	     -9.16305018	    -13.28207972	     -0.45445920	      1.01680418
      1.20916667	      0.86366083	     -0.63658645	     -2.60889221	      0.13926808	      1.02261400	      0.30090488	     19.01881621	     -3.21800405	     -9.45825538	    -57.83591858	      4.37960126	    -10.46886138	     -0.52775914	      8.91215856	      0.35853169	     -6.06812201	    -14.70936377	      2.97431751	    -15.12531616	     -9.20143954	    -13.24787846	     -0.31132922	      0.97313914
      1.21333333	      1.03629111	     -0.80213515	     -2.41757640	      0.14433597	      1.02371087	      0.30025945	     19.08492283	     -3.07885531	     -9.91127732	    -56.69738852	      4.43139289	    -10.66296768	     -0.75138155	      8.26553857	      0.27702392	     -5.82740623	    -14.41298012	      3.14196018	    -15.07149362	     -9.33218672	    -13.49204832	     -0.03289473	      0.71304490
      1.21750000	      1.06384103	     -0.92574049	     -2.33142807	      0.14936831	      1.02449000	      0.29988447	     19.33528339	     -2.92482779	    -10.23331433	    -55.55324546	      4.44785307	    -10.86757040	     -0.90122634	      7.77245151	      0.20970583	     -5.68352724	    -14.11858864	      3.26201339	    -15.12671621	     -9.41877210	    -13.55826784	      0.16595265	      0.61568906
      1.22166667	      1.16585100	     -1.06254541	     -2.19614583	      0.15444073	      1.02538251	      0.29941931	     19.45277614	     -2.78180245	    -10.62118043	    -54.32655339	      4.57962560	    -10.99999288	     -1.11257466	      7.19472277	      0.13455220	     -5.51392762	    -13.80665344	      3.35617964	    -15.11891051	     -9.54088391	    -13.71134859	      0.39160058	      0.40435822
      1.22583333	      1.18783462	     -1.18388084	     -2.10138042	      0.15948586	      1.02608439	      0.29905833	     19.65597732	     -2.62987211	    -10.96058974	    -53.05804903	      4.59990586	    -11.17962144	     -1.26277524	      6.70930361	      0.06369093	     -5.37680696	    -13.51202118	      3.48436941	    -15.15863573	     -9.62388532	    -13.76863076	      0.58964284	      0.28727408
      1.23000000	      1.26463102	     -1.30978190	     -1.98695340	      0.16455943	      1.02685044	      0.29866578	     19.76033171	     -2.48368396	    -11.32953117	    -51.71801370	      4.67387243	    -11.30122254	     -1.42488979	      6.15808157	     -0.01028084	     -5.23308623	    -13.20010714	      3.59238134	    -15.18025033	     -9.71077761	    -13.88699175	      0.79929434	      0.11394722
      1.23416667	      1.32908166	     -1.41947484	     -1.87784818	      0.16961528	      1.02754099	      0.29830716	     19.86179132	     -2.34742227	    -11.68764229	    -50.33377725	      4.75317038	    -11.42249064	     -1.58569370	      5.62346346	     -0.07141250	     -5.09823193	    -12.89024107	      3.69649735	    -15.20574160	     -9.79403462	    -13.99147128	      0.98667799	     -0.04426969
      1.23833333	      1.38297090	     -1.52292760	     -1.76382417	      0.17467980	      1.02817333	      0.29796168	     19.94922257	     -2.21563180	    -12.05085195	    -48.89551959	      4.84141307	    -11.52790722	     -1.75523539	      5.10168001	     -0.12935082	     -4.96052505	    -12.58128038	      3.79807501	    -15.22815057	     -9.87980651	    -14.08149874	      1.16487644	     -0.21127207
      1.24250000	      1.42408368	     -1.61111928	     -1.66023486	      0.17973919	      1.02872879	      0.29765640	     20.03349311	     -2.09111152	    -12.39667103	    -47.41499826	      4.93035888	    -11.61387719	     -1.92587232	      4.59558054	     -0.17539370	     -4.83704782	    -12.27545438	      3.89762410	    -15.25706653	     -9.96361442	    -14.16006277	      1.32361629	     -0.36640395
      1.24666667	      1.32966966	     -1.63825627	     -1.65787249	      0.18479577	      1.02896503	      0.29762670	     20.28741312	     -1.97611152	    -12.60391241	    -45.95220207	      5.09013377	    -11.63053216	     -1.98790514	      4.23620736	     -0.18031643	     -4.83684724	    -11.98255088	      3.94541547	    -15.31104748	     -9.99424318	    -14.06569554	      1.38804130	     -0.43367772
      1.25083333	      1.45731932	     -1.75942856	     -1.47574602	      0.18985948	      1.02961449	      0.29719291	     20.19445497	     -1.83935577	    -13.04227846	    -44.31228718	      5.07977513	    -11.76550521	     -2.16122080	      3.64532316	     -0.25723505	     -4.63670941	    -11.68479392	      4.11934110	    -15.27871121	    -10.07037131	    -14.25240242	      1.59779215	     -0.64013114
      1.25500000	      1.47770897	     -1.81310635	     -1.39344348	      0.19493184	      1.02999253	      0.29699826	     20.23745361	     -1.72686393	    -13.34948081	    -42.69197725	      5.15525270	    -11.77551547	     -2.32796384	      3.16230561	     -0.27906924	     -4.54978369	    -11.38105374	      4.21092287	    -15.32585697	    -10.14630525	    -14.29675564	      1.71176256	     -0.78822855
      1.25916667	      1.46829390	     -1.85324577	     -1.32150992	      0.19999037	      1.03025938	      0.29686302	     20.29860522	     -1.61382985	    -13.62848922	    -41.03898443	      5.22715329	    -11.78445396	     -2.49026531	      2.71849318	     -0.29348228	     -4.47653956	    -11.09337970	      4.32005228	    -15.32939647	    -10.21894749	    -14.31469292	      1.80179030	     -0.91488914
      1.26333333	      1.43122587	     -1.87615278	     -1.26047889	      0.20504891	      1.03043047	      0.29679640	     20.37204753	     -1.50481067	    -13.87990969	    -39.34731583	      5.28386524	    -11.77978214	     -2.64298701	      2.30866578	     -0.29647022	     -4.41947671	    -10.81626858	      4.43001884	    -15.33424850	    -10.28652504	    -14.29122618	      1.86691464	     -1.02814497
      1.26750000	      1.40400823	     -1.88475734	     -1.21293225	      0.21009824	      1.03055906	      0.29677474	     20.41746945	     -1.39957372	    -14.10401207	    -37.62004003	      5.33377138	    -11.74247898	     -2.78708280	      1.88850283	     -0.28766611	     -4.38529807	    -10.54124587	      4.53963757	    -15.32599015	    -10.35069712	    -14.27915267	      1.91457603	     -1.12903115
      1.27166667	      1.37423223	     -1.88281076	     -1.17337842	      0.21514105	      1.03062849	      0.29681283	     20.44768582	     -1.29376513	    -14.30820758	    -35.85842150	      5.36456418	    -11.69097989	     -2.93694737	      1.47157535	     -0.27280935	     -4.35844531	    -10.26768486	      4.66010392	    -15.30310433	    -10.41735826	    -14.27812022	      1.93138237	     -1.22523060
